solid 装配 - 基座总成-1 jiaox-1
   facet normal 1.000000e+000 0.000000e+000 0.000000e+000
      outer loop
         vertex 1.578860e+002 9.102548e+000 1.234841e+002
         vertex 1.578860e+002 8.929988e+000 1.236567e+002
         vertex 1.578860e+002 6.002450e+000 1.205566e+002
      endloop
   endfacet
   facet normal 1.000000e+000 0.000000e+000 0.000000e+000
      outer loop
         vertex 1.578860e+002 6.002450e+000 1.205566e+002
         vertex 1.578860e+002 8.929988e+000 1.236567e+002
         vertex 1.578860e+002 8.790014e+000 1.238566e+002
      endloop
   endfacet
   facet normal 1.000000e+000 0.000000e+000 0.000000e+000
      outer loop
         vertex 1.578860e+002 1.400245e+001 1.205566e+002
         vertex 1.578860e+002 1.131802e+001 1.240778e+002
         vertex 1.578860e+002 1.121489e+001 1.238566e+002
      endloop
   endfacet
   facet normal 1.000000e+000 0.000000e+000 0.000000e+000
      outer loop
         vertex 1.578860e+002 1.121489e+001 1.238566e+002
         vertex 1.578860e+002 1.107491e+001 1.236567e+002
         vertex 1.578860e+002 1.400245e+001 1.205566e+002
      endloop
   endfacet
   facet normal 1.000000e+000 0.000000e+000 0.000000e+000
      outer loop
         vertex 1.578860e+002 1.400245e+001 1.205566e+002
         vertex 1.578860e+002 1.107491e+001 1.236567e+002
         vertex 1.578860e+002 1.090235e+001 1.234841e+002
      endloop
   endfacet
   facet normal 1.000000e+000 0.000000e+000 0.000000e+000
      outer loop
         vertex 1.578860e+002 1.400245e+001 1.205566e+002
         vertex 1.578860e+002 1.090235e+001 1.234841e+002
         vertex 1.578860e+002 1.070245e+001 1.233442e+002
      endloop
   endfacet
   facet normal 1.000000e+000 0.000000e+000 0.000000e+000
      outer loop
         vertex 1.578860e+002 1.070245e+001 1.233442e+002
         vertex 1.578860e+002 1.048128e+001 1.232410e+002
         vertex 1.578860e+002 1.400245e+001 1.205566e+002
      endloop
   endfacet
   facet normal 1.000000e+000 0.000000e+000 0.000000e+000
      outer loop
         vertex 1.578860e+002 1.400245e+001 1.205566e+002
         vertex 1.578860e+002 1.048128e+001 1.232410e+002
         vertex 1.578860e+002 1.024556e+001 1.231779e+002
      endloop
   endfacet
   facet normal 1.000000e+000 0.000000e+000 0.000000e+000
      outer loop
         vertex 1.578860e+002 1.400245e+001 1.205566e+002
         vertex 1.578860e+002 1.024556e+001 1.231779e+002
         vertex 1.578860e+002 6.002450e+000 1.205566e+002
      endloop
   endfacet
   facet normal 1.000000e+000 0.000000e+000 0.000000e+000
      outer loop
         vertex 1.578860e+002 6.002450e+000 1.205566e+002
         vertex 1.578860e+002 1.024556e+001 1.231779e+002
         vertex 1.578860e+002 1.000245e+001 1.231566e+002
      endloop
   endfacet
   facet normal 1.000000e+000 0.000000e+000 0.000000e+000
      outer loop
         vertex 1.578860e+002 6.002450e+000 1.205566e+002
         vertex 1.578860e+002 1.000245e+001 1.231566e+002
         vertex 1.578860e+002 9.759342e+000 1.231779e+002
      endloop
   endfacet
   facet normal 1.000000e+000 0.000000e+000 0.000000e+000
      outer loop
         vertex 1.578860e+002 9.759342e+000 1.231779e+002
         vertex 1.578860e+002 9.523622e+000 1.232410e+002
         vertex 1.578860e+002 6.002450e+000 1.205566e+002
      endloop
   endfacet
   facet normal 1.000000e+000 0.000000e+000 0.000000e+000
      outer loop
         vertex 1.578860e+002 6.002450e+000 1.205566e+002
         vertex 1.578860e+002 9.523622e+000 1.232410e+002
         vertex 1.578860e+002 9.302450e+000 1.233442e+002
      endloop
   endfacet
   facet normal 1.000000e+000 0.000000e+000 0.000000e+000
      outer loop
         vertex 1.578860e+002 6.002450e+000 1.205566e+002
         vertex 1.578860e+002 9.302450e+000 1.233442e+002
         vertex 1.578860e+002 9.102548e+000 1.234841e+002
      endloop
   endfacet
   facet normal 1.000000e+000 0.000000e+000 0.000000e+000
      outer loop
         vertex 1.578860e+002 8.790014e+000 1.238566e+002
         vertex 1.578860e+002 8.686880e+000 1.240778e+002
         vertex 1.578860e+002 6.002450e+000 1.205566e+002
      endloop
   endfacet
   facet normal 1.000000e+000 0.000000e+000 0.000000e+000
      outer loop
         vertex 1.578860e+002 6.002450e+000 1.205566e+002
         vertex 1.578860e+002 8.686880e+000 1.240778e+002
         vertex 1.578860e+002 8.623719e+000 1.243135e+002
      endloop
   endfacet
   facet normal 1.000000e+000 0.000000e+000 0.000000e+000
      outer loop
         vertex 1.578860e+002 6.002450e+000 1.205566e+002
         vertex 1.578860e+002 8.623719e+000 1.243135e+002
         vertex 1.578860e+002 6.002450e+000 1.285566e+002
      endloop
   endfacet
   facet normal 1.000000e+000 0.000000e+000 0.000000e+000
      outer loop
         vertex 1.578860e+002 6.002450e+000 1.285566e+002
         vertex 1.578860e+002 8.623719e+000 1.243135e+002
         vertex 1.578860e+002 8.602450e+000 1.245566e+002
      endloop
   endfacet
   facet normal 1.000000e+000 0.000000e+000 0.000000e+000
      outer loop
         vertex 1.578860e+002 6.002450e+000 1.285566e+002
         vertex 1.578860e+002 8.602450e+000 1.245566e+002
         vertex 1.578860e+002 8.623719e+000 1.247997e+002
      endloop
   endfacet
   facet normal 1.000000e+000 0.000000e+000 0.000000e+000
      outer loop
         vertex 1.578860e+002 1.400245e+001 1.285566e+002
         vertex 1.578860e+002 1.140245e+001 1.245566e+002
         vertex 1.578860e+002 1.400245e+001 1.205566e+002
      endloop
   endfacet
   facet normal 1.000000e+000 0.000000e+000 0.000000e+000
      outer loop
         vertex 1.578860e+002 1.400245e+001 1.205566e+002
         vertex 1.578860e+002 1.140245e+001 1.245566e+002
         vertex 1.578860e+002 1.138118e+001 1.243135e+002
      endloop
   endfacet
   facet normal 1.000000e+000 0.000000e+000 0.000000e+000
      outer loop
         vertex 1.578860e+002 1.400245e+001 1.205566e+002
         vertex 1.578860e+002 1.138118e+001 1.243135e+002
         vertex 1.578860e+002 1.131802e+001 1.240778e+002
      endloop
   endfacet
   facet normal 1.000000e+000 0.000000e+000 0.000000e+000
      outer loop
         vertex 1.578860e+002 8.623719e+000 1.247997e+002
         vertex 1.578860e+002 8.686880e+000 1.250354e+002
         vertex 1.578860e+002 6.002450e+000 1.285566e+002
      endloop
   endfacet
   facet normal 1.000000e+000 0.000000e+000 0.000000e+000
      outer loop
         vertex 1.578860e+002 6.002450e+000 1.285566e+002
         vertex 1.578860e+002 8.686880e+000 1.250354e+002
         vertex 1.578860e+002 8.790014e+000 1.252566e+002
      endloop
   endfacet
   facet normal 1.000000e+000 0.000000e+000 0.000000e+000
      outer loop
         vertex 1.578860e+002 6.002450e+000 1.285566e+002
         vertex 1.578860e+002 8.790014e+000 1.252566e+002
         vertex 1.578860e+002 8.929988e+000 1.254565e+002
      endloop
   endfacet
   facet normal 1.000000e+000 0.000000e+000 0.000000e+000
      outer loop
         vertex 1.578860e+002 8.929988e+000 1.254565e+002
         vertex 1.578860e+002 9.102548e+000 1.256291e+002
         vertex 1.578860e+002 6.002450e+000 1.285566e+002
      endloop
   endfacet
   facet normal 1.000000e+000 0.000000e+000 0.000000e+000
      outer loop
         vertex 1.578860e+002 6.002450e+000 1.285566e+002
         vertex 1.578860e+002 9.102548e+000 1.256291e+002
         vertex 1.578860e+002 9.302450e+000 1.257691e+002
      endloop
   endfacet
   facet normal 1.000000e+000 0.000000e+000 0.000000e+000
      outer loop
         vertex 1.578860e+002 6.002450e+000 1.285566e+002
         vertex 1.578860e+002 9.302450e+000 1.257691e+002
         vertex 1.578860e+002 9.523622e+000 1.258722e+002
      endloop
   endfacet
   facet normal 1.000000e+000 0.000000e+000 0.000000e+000
      outer loop
         vertex 1.578860e+002 1.400245e+001 1.285566e+002
         vertex 1.578860e+002 1.048128e+001 1.258722e+002
         vertex 1.578860e+002 1.070245e+001 1.257691e+002
      endloop
   endfacet
   facet normal 1.000000e+000 0.000000e+000 0.000000e+000
      outer loop
         vertex 1.578860e+002 9.523622e+000 1.258722e+002
         vertex 1.578860e+002 9.759342e+000 1.259353e+002
         vertex 1.578860e+002 6.002450e+000 1.285566e+002
      endloop
   endfacet
   facet normal 1.000000e+000 0.000000e+000 0.000000e+000
      outer loop
         vertex 1.578860e+002 6.002450e+000 1.285566e+002
         vertex 1.578860e+002 9.759342e+000 1.259353e+002
         vertex 1.578860e+002 1.000245e+001 1.259566e+002
      endloop
   endfacet
   facet normal 1.000000e+000 0.000000e+000 0.000000e+000
      outer loop
         vertex 1.578860e+002 6.002450e+000 1.285566e+002
         vertex 1.578860e+002 1.000245e+001 1.259566e+002
         vertex 1.578860e+002 1.400245e+001 1.285566e+002
      endloop
   endfacet
   facet normal 1.000000e+000 0.000000e+000 0.000000e+000
      outer loop
         vertex 1.578860e+002 1.400245e+001 1.285566e+002
         vertex 1.578860e+002 1.000245e+001 1.259566e+002
         vertex 1.578860e+002 1.024556e+001 1.259353e+002
      endloop
   endfacet
   facet normal 1.000000e+000 0.000000e+000 0.000000e+000
      outer loop
         vertex 1.578860e+002 1.400245e+001 1.285566e+002
         vertex 1.578860e+002 1.024556e+001 1.259353e+002
         vertex 1.578860e+002 1.048128e+001 1.258722e+002
      endloop
   endfacet
   facet normal 1.000000e+000 0.000000e+000 0.000000e+000
      outer loop
         vertex 1.578860e+002 1.070245e+001 1.257691e+002
         vertex 1.578860e+002 1.090235e+001 1.256291e+002
         vertex 1.578860e+002 1.400245e+001 1.285566e+002
      endloop
   endfacet
   facet normal 1.000000e+000 0.000000e+000 0.000000e+000
      outer loop
         vertex 1.578860e+002 1.400245e+001 1.285566e+002
         vertex 1.578860e+002 1.090235e+001 1.256291e+002
         vertex 1.578860e+002 1.107491e+001 1.254565e+002
      endloop
   endfacet
   facet normal 1.000000e+000 0.000000e+000 0.000000e+000
      outer loop
         vertex 1.578860e+002 1.400245e+001 1.285566e+002
         vertex 1.578860e+002 1.107491e+001 1.254565e+002
         vertex 1.578860e+002 1.121489e+001 1.252566e+002
      endloop
   endfacet
   facet normal 1.000000e+000 0.000000e+000 0.000000e+000
      outer loop
         vertex 1.578860e+002 1.121489e+001 1.252566e+002
         vertex 1.578860e+002 1.131802e+001 1.250354e+002
         vertex 1.578860e+002 1.400245e+001 1.285566e+002
      endloop
   endfacet
   facet normal 1.000000e+000 0.000000e+000 0.000000e+000
      outer loop
         vertex 1.578860e+002 1.400245e+001 1.285566e+002
         vertex 1.578860e+002 1.131802e+001 1.250354e+002
         vertex 1.578860e+002 1.138118e+001 1.247997e+002
      endloop
   endfacet
   facet normal 1.000000e+000 0.000000e+000 0.000000e+000
      outer loop
         vertex 1.578860e+002 1.400245e+001 1.285566e+002
         vertex 1.578860e+002 1.138118e+001 1.247997e+002
         vertex 1.578860e+002 1.140245e+001 1.245566e+002
      endloop
   endfacet
   facet normal -1.000000e+000 0.000000e+000 0.000000e+000
      outer loop
         vertex 1.478860e+002 8.929988e+000 1.236567e+002
         vertex 1.478860e+002 6.002450e+000 1.205566e+002
         vertex 1.478860e+002 8.790014e+000 1.238566e+002
      endloop
   endfacet
   facet normal -1.000000e+000 0.000000e+000 0.000000e+000
      outer loop
         vertex 1.478860e+002 8.790014e+000 1.238566e+002
         vertex 1.478860e+002 6.002450e+000 1.205566e+002
         vertex 1.478860e+002 8.686880e+000 1.240778e+002
      endloop
   endfacet
   facet normal -1.000000e+000 0.000000e+000 0.000000e+000
      outer loop
         vertex 1.478860e+002 8.929988e+000 1.236567e+002
         vertex 1.478860e+002 9.102548e+000 1.234841e+002
         vertex 1.478860e+002 6.002450e+000 1.205566e+002
      endloop
   endfacet
   facet normal -1.000000e+000 0.000000e+000 0.000000e+000
      outer loop
         vertex 1.478860e+002 6.002450e+000 1.205566e+002
         vertex 1.478860e+002 9.102548e+000 1.234841e+002
         vertex 1.478860e+002 9.302450e+000 1.233442e+002
      endloop
   endfacet
   facet normal -1.000000e+000 0.000000e+000 0.000000e+000
      outer loop
         vertex 1.478860e+002 6.002450e+000 1.205566e+002
         vertex 1.478860e+002 9.302450e+000 1.233442e+002
         vertex 1.478860e+002 9.523622e+000 1.232410e+002
      endloop
   endfacet
   facet normal -1.000000e+000 0.000000e+000 0.000000e+000
      outer loop
         vertex 1.478860e+002 9.523622e+000 1.232410e+002
         vertex 1.478860e+002 9.759342e+000 1.231779e+002
         vertex 1.478860e+002 6.002450e+000 1.205566e+002
      endloop
   endfacet
   facet normal -1.000000e+000 0.000000e+000 0.000000e+000
      outer loop
         vertex 1.478860e+002 6.002450e+000 1.205566e+002
         vertex 1.478860e+002 9.759342e+000 1.231779e+002
         vertex 1.478860e+002 1.000245e+001 1.231566e+002
      endloop
   endfacet
   facet normal -1.000000e+000 0.000000e+000 0.000000e+000
      outer loop
         vertex 1.478860e+002 6.002450e+000 1.205566e+002
         vertex 1.478860e+002 1.000245e+001 1.231566e+002
         vertex 1.478860e+002 1.400245e+001 1.205566e+002
      endloop
   endfacet
   facet normal -1.000000e+000 0.000000e+000 0.000000e+000
      outer loop
         vertex 1.478860e+002 1.400245e+001 1.205566e+002
         vertex 1.478860e+002 1.000245e+001 1.231566e+002
         vertex 1.478860e+002 1.024556e+001 1.231779e+002
      endloop
   endfacet
   facet normal -1.000000e+000 0.000000e+000 0.000000e+000
      outer loop
         vertex 1.478860e+002 1.024556e+001 1.231779e+002
         vertex 1.478860e+002 1.048128e+001 1.232410e+002
         vertex 1.478860e+002 1.400245e+001 1.205566e+002
      endloop
   endfacet
   facet normal -1.000000e+000 0.000000e+000 0.000000e+000
      outer loop
         vertex 1.478860e+002 1.400245e+001 1.205566e+002
         vertex 1.478860e+002 1.048128e+001 1.232410e+002
         vertex 1.478860e+002 1.070245e+001 1.233442e+002
      endloop
   endfacet
   facet normal -1.000000e+000 0.000000e+000 0.000000e+000
      outer loop
         vertex 1.478860e+002 1.400245e+001 1.205566e+002
         vertex 1.478860e+002 1.070245e+001 1.233442e+002
         vertex 1.478860e+002 1.090235e+001 1.234841e+002
      endloop
   endfacet
   facet normal -1.000000e+000 0.000000e+000 0.000000e+000
      outer loop
         vertex 1.478860e+002 8.686880e+000 1.250354e+002
         vertex 1.478860e+002 8.623719e+000 1.247997e+002
         vertex 1.478860e+002 6.002450e+000 1.285566e+002
      endloop
   endfacet
   facet normal -1.000000e+000 0.000000e+000 0.000000e+000
      outer loop
         vertex 1.478860e+002 6.002450e+000 1.285566e+002
         vertex 1.478860e+002 8.623719e+000 1.247997e+002
         vertex 1.478860e+002 8.602450e+000 1.245566e+002
      endloop
   endfacet
   facet normal -1.000000e+000 0.000000e+000 0.000000e+000
      outer loop
         vertex 1.478860e+002 6.002450e+000 1.285566e+002
         vertex 1.478860e+002 8.602450e+000 1.245566e+002
         vertex 1.478860e+002 6.002450e+000 1.205566e+002
      endloop
   endfacet
   facet normal -1.000000e+000 0.000000e+000 0.000000e+000
      outer loop
         vertex 1.478860e+002 6.002450e+000 1.205566e+002
         vertex 1.478860e+002 8.602450e+000 1.245566e+002
         vertex 1.478860e+002 8.623719e+000 1.243135e+002
      endloop
   endfacet
   facet normal -1.000000e+000 0.000000e+000 0.000000e+000
      outer loop
         vertex 1.478860e+002 6.002450e+000 1.205566e+002
         vertex 1.478860e+002 8.623719e+000 1.243135e+002
         vertex 1.478860e+002 8.686880e+000 1.240778e+002
      endloop
   endfacet
   facet normal -1.000000e+000 0.000000e+000 0.000000e+000
      outer loop
         vertex 1.478860e+002 1.090235e+001 1.234841e+002
         vertex 1.478860e+002 1.107491e+001 1.236567e+002
         vertex 1.478860e+002 1.400245e+001 1.205566e+002
      endloop
   endfacet
   facet normal -1.000000e+000 0.000000e+000 0.000000e+000
      outer loop
         vertex 1.478860e+002 1.400245e+001 1.205566e+002
         vertex 1.478860e+002 1.107491e+001 1.236567e+002
         vertex 1.478860e+002 1.121489e+001 1.238566e+002
      endloop
   endfacet
   facet normal -1.000000e+000 0.000000e+000 0.000000e+000
      outer loop
         vertex 1.478860e+002 1.400245e+001 1.205566e+002
         vertex 1.478860e+002 1.121489e+001 1.238566e+002
         vertex 1.478860e+002 1.131802e+001 1.240778e+002
      endloop
   endfacet
   facet normal -1.000000e+000 0.000000e+000 0.000000e+000
      outer loop
         vertex 1.478860e+002 1.107491e+001 1.254565e+002
         vertex 1.478860e+002 1.400245e+001 1.285566e+002
         vertex 1.478860e+002 1.121489e+001 1.252566e+002
      endloop
   endfacet
   facet normal -1.000000e+000 0.000000e+000 0.000000e+000
      outer loop
         vertex 1.478860e+002 1.121489e+001 1.252566e+002
         vertex 1.478860e+002 1.400245e+001 1.285566e+002
         vertex 1.478860e+002 1.131802e+001 1.250354e+002
      endloop
   endfacet
   facet normal -1.000000e+000 0.000000e+000 0.000000e+000
      outer loop
         vertex 1.478860e+002 1.107491e+001 1.254565e+002
         vertex 1.478860e+002 1.090235e+001 1.256291e+002
         vertex 1.478860e+002 1.400245e+001 1.285566e+002
      endloop
   endfacet
   facet normal -1.000000e+000 0.000000e+000 0.000000e+000
      outer loop
         vertex 1.478860e+002 1.400245e+001 1.285566e+002
         vertex 1.478860e+002 1.090235e+001 1.256291e+002
         vertex 1.478860e+002 1.070245e+001 1.257691e+002
      endloop
   endfacet
   facet normal -1.000000e+000 0.000000e+000 0.000000e+000
      outer loop
         vertex 1.478860e+002 1.400245e+001 1.285566e+002
         vertex 1.478860e+002 1.070245e+001 1.257691e+002
         vertex 1.478860e+002 1.048128e+001 1.258722e+002
      endloop
   endfacet
   facet normal -1.000000e+000 0.000000e+000 0.000000e+000
      outer loop
         vertex 1.478860e+002 1.131802e+001 1.240778e+002
         vertex 1.478860e+002 1.138118e+001 1.243135e+002
         vertex 1.478860e+002 1.400245e+001 1.205566e+002
      endloop
   endfacet
   facet normal -1.000000e+000 0.000000e+000 0.000000e+000
      outer loop
         vertex 1.478860e+002 1.400245e+001 1.205566e+002
         vertex 1.478860e+002 1.138118e+001 1.243135e+002
         vertex 1.478860e+002 1.140245e+001 1.245566e+002
      endloop
   endfacet
   facet normal -1.000000e+000 0.000000e+000 0.000000e+000
      outer loop
         vertex 1.478860e+002 1.400245e+001 1.205566e+002
         vertex 1.478860e+002 1.140245e+001 1.245566e+002
         vertex 1.478860e+002 1.400245e+001 1.285566e+002
      endloop
   endfacet
   facet normal -1.000000e+000 0.000000e+000 0.000000e+000
      outer loop
         vertex 1.478860e+002 1.400245e+001 1.285566e+002
         vertex 1.478860e+002 1.140245e+001 1.245566e+002
         vertex 1.478860e+002 1.138118e+001 1.247997e+002
      endloop
   endfacet
   facet normal -1.000000e+000 0.000000e+000 0.000000e+000
      outer loop
         vertex 1.478860e+002 1.400245e+001 1.285566e+002
         vertex 1.478860e+002 1.138118e+001 1.247997e+002
         vertex 1.478860e+002 1.131802e+001 1.250354e+002
      endloop
   endfacet
   facet normal -1.000000e+000 0.000000e+000 0.000000e+000
      outer loop
         vertex 1.478860e+002 9.523622e+000 1.258722e+002
         vertex 1.478860e+002 9.302450e+000 1.257691e+002
         vertex 1.478860e+002 6.002450e+000 1.285566e+002
      endloop
   endfacet
   facet normal -1.000000e+000 0.000000e+000 0.000000e+000
      outer loop
         vertex 1.478860e+002 6.002450e+000 1.285566e+002
         vertex 1.478860e+002 9.302450e+000 1.257691e+002
         vertex 1.478860e+002 9.102548e+000 1.256291e+002
      endloop
   endfacet
   facet normal -1.000000e+000 0.000000e+000 0.000000e+000
      outer loop
         vertex 1.478860e+002 1.048128e+001 1.258722e+002
         vertex 1.478860e+002 1.024556e+001 1.259353e+002
         vertex 1.478860e+002 1.400245e+001 1.285566e+002
      endloop
   endfacet
   facet normal -1.000000e+000 0.000000e+000 0.000000e+000
      outer loop
         vertex 1.478860e+002 1.400245e+001 1.285566e+002
         vertex 1.478860e+002 1.024556e+001 1.259353e+002
         vertex 1.478860e+002 1.000245e+001 1.259566e+002
      endloop
   endfacet
   facet normal -1.000000e+000 0.000000e+000 0.000000e+000
      outer loop
         vertex 1.478860e+002 1.400245e+001 1.285566e+002
         vertex 1.478860e+002 1.000245e+001 1.259566e+002
         vertex 1.478860e+002 6.002450e+000 1.285566e+002
      endloop
   endfacet
   facet normal -1.000000e+000 0.000000e+000 0.000000e+000
      outer loop
         vertex 1.478860e+002 6.002450e+000 1.285566e+002
         vertex 1.478860e+002 1.000245e+001 1.259566e+002
         vertex 1.478860e+002 9.759342e+000 1.259353e+002
      endloop
   endfacet
   facet normal -1.000000e+000 0.000000e+000 0.000000e+000
      outer loop
         vertex 1.478860e+002 6.002450e+000 1.285566e+002
         vertex 1.478860e+002 9.759342e+000 1.259353e+002
         vertex 1.478860e+002 9.523622e+000 1.258722e+002
      endloop
   endfacet
   facet normal -1.000000e+000 0.000000e+000 0.000000e+000
      outer loop
         vertex 1.478860e+002 9.102548e+000 1.256291e+002
         vertex 1.478860e+002 8.929988e+000 1.254565e+002
         vertex 1.478860e+002 6.002450e+000 1.285566e+002
      endloop
   endfacet
   facet normal -1.000000e+000 0.000000e+000 0.000000e+000
      outer loop
         vertex 1.478860e+002 6.002450e+000 1.285566e+002
         vertex 1.478860e+002 8.929988e+000 1.254565e+002
         vertex 1.478860e+002 8.790014e+000 1.252566e+002
      endloop
   endfacet
   facet normal -1.000000e+000 0.000000e+000 0.000000e+000
      outer loop
         vertex 1.478860e+002 6.002450e+000 1.285566e+002
         vertex 1.478860e+002 8.790014e+000 1.252566e+002
         vertex 1.478860e+002 8.686880e+000 1.250354e+002
      endloop
   endfacet
   facet normal 0.000000e+000 1.000000e+000 1.084202e-016
      outer loop
         vertex 1.578860e+002 1.400245e+001 1.285566e+002
         vertex 1.578860e+002 1.400245e+001 1.205566e+002
         vertex 1.478860e+002 1.400245e+001 1.285566e+002
      endloop
   endfacet
   facet normal 0.000000e+000 1.000000e+000 1.084202e-016
      outer loop
         vertex 1.478860e+002 1.400245e+001 1.285566e+002
         vertex 1.578860e+002 1.400245e+001 1.205566e+002
         vertex 1.478860e+002 1.400245e+001 1.205566e+002
      endloop
   endfacet
   facet normal 0.000000e+000 1.084202e-016 1.000000e+000
      outer loop
         vertex 1.578860e+002 6.002450e+000 1.285566e+002
         vertex 1.578860e+002 1.400245e+001 1.285566e+002
         vertex 1.478860e+002 6.002450e+000 1.285566e+002
      endloop
   endfacet
   facet normal 0.000000e+000 1.084202e-016 1.000000e+000
      outer loop
         vertex 1.478860e+002 6.002450e+000 1.285566e+002
         vertex 1.578860e+002 1.400245e+001 1.285566e+002
         vertex 1.478860e+002 1.400245e+001 1.285566e+002
      endloop
   endfacet
   facet normal 0.000000e+000 -1.000000e+000 -1.232595e-032
      outer loop
         vertex 1.578860e+002 6.002450e+000 1.205566e+002
         vertex 1.578860e+002 6.002450e+000 1.285566e+002
         vertex 1.478860e+002 6.002450e+000 1.205566e+002
      endloop
   endfacet
   facet normal 0.000000e+000 -1.000000e+000 -1.232595e-032
      outer loop
         vertex 1.478860e+002 6.002450e+000 1.205566e+002
         vertex 1.578860e+002 6.002450e+000 1.285566e+002
         vertex 1.478860e+002 6.002450e+000 1.285566e+002
      endloop
   endfacet
   facet normal 0.000000e+000 -1.084202e-016 -1.000000e+000
      outer loop
         vertex 1.578860e+002 1.400245e+001 1.205566e+002
         vertex 1.578860e+002 6.002450e+000 1.205566e+002
         vertex 1.478860e+002 1.400245e+001 1.205566e+002
      endloop
   endfacet
   facet normal 0.000000e+000 -1.084202e-016 -1.000000e+000
      outer loop
         vertex 1.478860e+002 1.400245e+001 1.205566e+002
         vertex 1.578860e+002 6.002450e+000 1.205566e+002
         vertex 1.478860e+002 6.002450e+000 1.205566e+002
      endloop
   endfacet
   facet normal 0.000000e+000 9.983120e-001 -5.807914e-002
      outer loop
         vertex 1.578860e+002 8.602450e+000 1.245566e+002
         vertex 1.478860e+002 8.602450e+000 1.245566e+002
         vertex 1.578860e+002 8.623719e+000 1.247997e+002
      endloop
   endfacet
   facet normal 0.000000e+000 9.932307e-001 -1.161583e-001
      outer loop
         vertex 1.578860e+002 8.623719e+000 1.247997e+002
         vertex 1.478860e+002 8.602450e+000 1.245566e+002
         vertex 1.478860e+002 8.623719e+000 1.247997e+002
      endloop
   endfacet
   facet normal 0.000000e+000 9.730600e-001 -2.305519e-001
      outer loop
         vertex 1.578860e+002 8.623719e+000 1.247997e+002
         vertex 1.478860e+002 8.623719e+000 1.247997e+002
         vertex 1.578860e+002 8.686880e+000 1.250354e+002
      endloop
   endfacet
   facet normal 0.000000e+000 9.579706e-001 -2.868663e-001
      outer loop
         vertex 1.578860e+002 8.686880e+000 1.250354e+002
         vertex 1.478860e+002 8.623719e+000 1.247997e+002
         vertex 1.478860e+002 8.686880e+000 1.250354e+002
      endloop
   endfacet
   facet normal 0.000000e+000 9.182422e-001 -3.960194e-001
      outer loop
         vertex 1.578860e+002 8.686880e+000 1.250354e+002
         vertex 1.478860e+002 8.686880e+000 1.250354e+002
         vertex 1.578860e+002 8.790014e+000 1.252566e+002
      endloop
   endfacet
   facet normal 0.000000e+000 8.936031e-001 -4.488580e-001
      outer loop
         vertex 1.578860e+002 8.790014e+000 1.252566e+002
         vertex 1.478860e+002 8.686880e+000 1.250354e+002
         vertex 1.478860e+002 8.790014e+000 1.252566e+002
      endloop
   endfacet
   facet normal 0.000000e+000 8.355240e-001 -5.494540e-001
      outer loop
         vertex 1.578860e+002 8.790014e+000 1.252566e+002
         vertex 1.478860e+002 8.790014e+000 1.252566e+002
         vertex 1.578860e+002 8.929988e+000 1.254565e+002
      endloop
   endfacet
   facet normal 0.000000e+000 8.020839e-001 -5.972114e-001
      outer loop
         vertex 1.578860e+002 8.929988e+000 1.254565e+002
         vertex 1.478860e+002 8.790014e+000 1.252566e+002
         vertex 1.478860e+002 8.929988e+000 1.254565e+002
      endloop
   endfacet
   facet normal 0.000000e+000 7.274188e-001 -6.861938e-001
      outer loop
         vertex 1.578860e+002 8.929988e+000 1.254565e+002
         vertex 1.478860e+002 8.929988e+000 1.254565e+002
         vertex 1.578860e+002 9.102548e+000 1.256291e+002
      endloop
   endfacet
   facet normal 0.000000e+000 6.861938e-001 -7.274188e-001
      outer loop
         vertex 1.578860e+002 9.102548e+000 1.256291e+002
         vertex 1.478860e+002 8.929988e+000 1.254565e+002
         vertex 1.478860e+002 9.102548e+000 1.256291e+002
      endloop
   endfacet
   facet normal 0.000000e+000 5.972114e-001 -8.020839e-001
      outer loop
         vertex 1.578860e+002 9.102548e+000 1.256291e+002
         vertex 1.478860e+002 9.102548e+000 1.256291e+002
         vertex 1.578860e+002 9.302450e+000 1.257691e+002
      endloop
   endfacet
   facet normal 0.000000e+000 5.494540e-001 -8.355240e-001
      outer loop
         vertex 1.578860e+002 9.302450e+000 1.257691e+002
         vertex 1.478860e+002 9.102548e+000 1.256291e+002
         vertex 1.478860e+002 9.302450e+000 1.257691e+002
      endloop
   endfacet
   facet normal 0.000000e+000 4.488580e-001 -8.936031e-001
      outer loop
         vertex 1.578860e+002 9.302450e+000 1.257691e+002
         vertex 1.478860e+002 9.302450e+000 1.257691e+002
         vertex 1.578860e+002 9.523622e+000 1.258722e+002
      endloop
   endfacet
   facet normal 0.000000e+000 3.960194e-001 -9.182422e-001
      outer loop
         vertex 1.578860e+002 9.523622e+000 1.258722e+002
         vertex 1.478860e+002 9.302450e+000 1.257691e+002
         vertex 1.478860e+002 9.523622e+000 1.258722e+002
      endloop
   endfacet
   facet normal 0.000000e+000 2.868663e-001 -9.579706e-001
      outer loop
         vertex 1.578860e+002 9.523622e+000 1.258722e+002
         vertex 1.478860e+002 9.523622e+000 1.258722e+002
         vertex 1.578860e+002 9.759342e+000 1.259353e+002
      endloop
   endfacet
   facet normal 0.000000e+000 2.305519e-001 -9.730600e-001
      outer loop
         vertex 1.578860e+002 9.759342e+000 1.259353e+002
         vertex 1.478860e+002 9.523622e+000 1.258722e+002
         vertex 1.478860e+002 9.759342e+000 1.259353e+002
      endloop
   endfacet
   facet normal 0.000000e+000 1.161583e-001 -9.932307e-001
      outer loop
         vertex 1.578860e+002 9.759342e+000 1.259353e+002
         vertex 1.478860e+002 9.759342e+000 1.259353e+002
         vertex 1.578860e+002 1.000245e+001 1.259566e+002
      endloop
   endfacet
   facet normal 0.000000e+000 5.807914e-002 -9.983120e-001
      outer loop
         vertex 1.578860e+002 1.000245e+001 1.259566e+002
         vertex 1.478860e+002 9.759342e+000 1.259353e+002
         vertex 1.478860e+002 1.000245e+001 1.259566e+002
      endloop
   endfacet
   facet normal 0.000000e+000 -5.807914e-002 -9.983120e-001
      outer loop
         vertex 1.578860e+002 1.000245e+001 1.259566e+002
         vertex 1.478860e+002 1.000245e+001 1.259566e+002
         vertex 1.578860e+002 1.024556e+001 1.259353e+002
      endloop
   endfacet
   facet normal 0.000000e+000 -1.161583e-001 -9.932307e-001
      outer loop
         vertex 1.578860e+002 1.024556e+001 1.259353e+002
         vertex 1.478860e+002 1.000245e+001 1.259566e+002
         vertex 1.478860e+002 1.024556e+001 1.259353e+002
      endloop
   endfacet
   facet normal 0.000000e+000 -2.305519e-001 -9.730600e-001
      outer loop
         vertex 1.578860e+002 1.024556e+001 1.259353e+002
         vertex 1.478860e+002 1.024556e+001 1.259353e+002
         vertex 1.578860e+002 1.048128e+001 1.258722e+002
      endloop
   endfacet
   facet normal 0.000000e+000 -2.868663e-001 -9.579706e-001
      outer loop
         vertex 1.578860e+002 1.048128e+001 1.258722e+002
         vertex 1.478860e+002 1.024556e+001 1.259353e+002
         vertex 1.478860e+002 1.048128e+001 1.258722e+002
      endloop
   endfacet
   facet normal 0.000000e+000 -3.960194e-001 -9.182422e-001
      outer loop
         vertex 1.578860e+002 1.048128e+001 1.258722e+002
         vertex 1.478860e+002 1.048128e+001 1.258722e+002
         vertex 1.578860e+002 1.070245e+001 1.257691e+002
      endloop
   endfacet
   facet normal 0.000000e+000 -4.488580e-001 -8.936031e-001
      outer loop
         vertex 1.578860e+002 1.070245e+001 1.257691e+002
         vertex 1.478860e+002 1.048128e+001 1.258722e+002
         vertex 1.478860e+002 1.070245e+001 1.257691e+002
      endloop
   endfacet
   facet normal 0.000000e+000 -5.494540e-001 -8.355240e-001
      outer loop
         vertex 1.578860e+002 1.070245e+001 1.257691e+002
         vertex 1.478860e+002 1.070245e+001 1.257691e+002
         vertex 1.578860e+002 1.090235e+001 1.256291e+002
      endloop
   endfacet
   facet normal 0.000000e+000 -5.972114e-001 -8.020839e-001
      outer loop
         vertex 1.578860e+002 1.090235e+001 1.256291e+002
         vertex 1.478860e+002 1.070245e+001 1.257691e+002
         vertex 1.478860e+002 1.090235e+001 1.256291e+002
      endloop
   endfacet
   facet normal 0.000000e+000 -6.861938e-001 -7.274188e-001
      outer loop
         vertex 1.578860e+002 1.090235e+001 1.256291e+002
         vertex 1.478860e+002 1.090235e+001 1.256291e+002
         vertex 1.578860e+002 1.107491e+001 1.254565e+002
      endloop
   endfacet
   facet normal 0.000000e+000 -7.274188e-001 -6.861938e-001
      outer loop
         vertex 1.578860e+002 1.107491e+001 1.254565e+002
         vertex 1.478860e+002 1.090235e+001 1.256291e+002
         vertex 1.478860e+002 1.107491e+001 1.254565e+002
      endloop
   endfacet
   facet normal 0.000000e+000 -8.020839e-001 -5.972114e-001
      outer loop
         vertex 1.578860e+002 1.107491e+001 1.254565e+002
         vertex 1.478860e+002 1.107491e+001 1.254565e+002
         vertex 1.578860e+002 1.121489e+001 1.252566e+002
      endloop
   endfacet
   facet normal 0.000000e+000 -8.355240e-001 -5.494540e-001
      outer loop
         vertex 1.578860e+002 1.121489e+001 1.252566e+002
         vertex 1.478860e+002 1.107491e+001 1.254565e+002
         vertex 1.478860e+002 1.121489e+001 1.252566e+002
      endloop
   endfacet
   facet normal 0.000000e+000 -8.936031e-001 -4.488580e-001
      outer loop
         vertex 1.578860e+002 1.121489e+001 1.252566e+002
         vertex 1.478860e+002 1.121489e+001 1.252566e+002
         vertex 1.578860e+002 1.131802e+001 1.250354e+002
      endloop
   endfacet
   facet normal 0.000000e+000 -9.182422e-001 -3.960194e-001
      outer loop
         vertex 1.578860e+002 1.131802e+001 1.250354e+002
         vertex 1.478860e+002 1.121489e+001 1.252566e+002
         vertex 1.478860e+002 1.131802e+001 1.250354e+002
      endloop
   endfacet
   facet normal 0.000000e+000 -9.579706e-001 -2.868663e-001
      outer loop
         vertex 1.578860e+002 1.131802e+001 1.250354e+002
         vertex 1.478860e+002 1.131802e+001 1.250354e+002
         vertex 1.578860e+002 1.138118e+001 1.247997e+002
      endloop
   endfacet
   facet normal 0.000000e+000 -9.730600e-001 -2.305519e-001
      outer loop
         vertex 1.578860e+002 1.138118e+001 1.247997e+002
         vertex 1.478860e+002 1.131802e+001 1.250354e+002
         vertex 1.478860e+002 1.138118e+001 1.247997e+002
      endloop
   endfacet
   facet normal 0.000000e+000 -9.932307e-001 -1.161583e-001
      outer loop
         vertex 1.578860e+002 1.138118e+001 1.247997e+002
         vertex 1.478860e+002 1.138118e+001 1.247997e+002
         vertex 1.578860e+002 1.140245e+001 1.245566e+002
      endloop
   endfacet
   facet normal 0.000000e+000 -9.983120e-001 -5.807914e-002
      outer loop
         vertex 1.578860e+002 1.140245e+001 1.245566e+002
         vertex 1.478860e+002 1.138118e+001 1.247997e+002
         vertex 1.478860e+002 1.140245e+001 1.245566e+002
      endloop
   endfacet
   facet normal 0.000000e+000 -9.983120e-001 5.807914e-002
      outer loop
         vertex 1.578860e+002 1.140245e+001 1.245566e+002
         vertex 1.478860e+002 1.140245e+001 1.245566e+002
         vertex 1.578860e+002 1.138118e+001 1.243135e+002
      endloop
   endfacet
   facet normal 0.000000e+000 -9.932307e-001 1.161583e-001
      outer loop
         vertex 1.578860e+002 1.138118e+001 1.243135e+002
         vertex 1.478860e+002 1.140245e+001 1.245566e+002
         vertex 1.478860e+002 1.138118e+001 1.243135e+002
      endloop
   endfacet
   facet normal 0.000000e+000 -9.730600e-001 2.305519e-001
      outer loop
         vertex 1.578860e+002 1.138118e+001 1.243135e+002
         vertex 1.478860e+002 1.138118e+001 1.243135e+002
         vertex 1.578860e+002 1.131802e+001 1.240778e+002
      endloop
   endfacet
   facet normal 0.000000e+000 -9.579706e-001 2.868663e-001
      outer loop
         vertex 1.578860e+002 1.131802e+001 1.240778e+002
         vertex 1.478860e+002 1.138118e+001 1.243135e+002
         vertex 1.478860e+002 1.131802e+001 1.240778e+002
      endloop
   endfacet
   facet normal 0.000000e+000 -9.182422e-001 3.960194e-001
      outer loop
         vertex 1.578860e+002 1.131802e+001 1.240778e+002
         vertex 1.478860e+002 1.131802e+001 1.240778e+002
         vertex 1.578860e+002 1.121489e+001 1.238566e+002
      endloop
   endfacet
   facet normal 0.000000e+000 -8.936031e-001 4.488580e-001
      outer loop
         vertex 1.578860e+002 1.121489e+001 1.238566e+002
         vertex 1.478860e+002 1.131802e+001 1.240778e+002
         vertex 1.478860e+002 1.121489e+001 1.238566e+002
      endloop
   endfacet
   facet normal 0.000000e+000 -8.355240e-001 5.494540e-001
      outer loop
         vertex 1.578860e+002 1.121489e+001 1.238566e+002
         vertex 1.478860e+002 1.121489e+001 1.238566e+002
         vertex 1.578860e+002 1.107491e+001 1.236567e+002
      endloop
   endfacet
   facet normal 0.000000e+000 -8.020839e-001 5.972114e-001
      outer loop
         vertex 1.578860e+002 1.107491e+001 1.236567e+002
         vertex 1.478860e+002 1.121489e+001 1.238566e+002
         vertex 1.478860e+002 1.107491e+001 1.236567e+002
      endloop
   endfacet
   facet normal 0.000000e+000 -7.274188e-001 6.861938e-001
      outer loop
         vertex 1.578860e+002 1.107491e+001 1.236567e+002
         vertex 1.478860e+002 1.107491e+001 1.236567e+002
         vertex 1.578860e+002 1.090235e+001 1.234841e+002
      endloop
   endfacet
   facet normal 0.000000e+000 -6.861938e-001 7.274188e-001
      outer loop
         vertex 1.578860e+002 1.090235e+001 1.234841e+002
         vertex 1.478860e+002 1.107491e+001 1.236567e+002
         vertex 1.478860e+002 1.090235e+001 1.234841e+002
      endloop
   endfacet
   facet normal 0.000000e+000 -5.972114e-001 8.020839e-001
      outer loop
         vertex 1.578860e+002 1.090235e+001 1.234841e+002
         vertex 1.478860e+002 1.090235e+001 1.234841e+002
         vertex 1.578860e+002 1.070245e+001 1.233442e+002
      endloop
   endfacet
   facet normal 0.000000e+000 -5.494540e-001 8.355240e-001
      outer loop
         vertex 1.578860e+002 1.070245e+001 1.233442e+002
         vertex 1.478860e+002 1.090235e+001 1.234841e+002
         vertex 1.478860e+002 1.070245e+001 1.233442e+002
      endloop
   endfacet
   facet normal 0.000000e+000 -4.488580e-001 8.936031e-001
      outer loop
         vertex 1.578860e+002 1.070245e+001 1.233442e+002
         vertex 1.478860e+002 1.070245e+001 1.233442e+002
         vertex 1.578860e+002 1.048128e+001 1.232410e+002
      endloop
   endfacet
   facet normal 0.000000e+000 -3.960194e-001 9.182422e-001
      outer loop
         vertex 1.578860e+002 1.048128e+001 1.232410e+002
         vertex 1.478860e+002 1.070245e+001 1.233442e+002
         vertex 1.478860e+002 1.048128e+001 1.232410e+002
      endloop
   endfacet
   facet normal 0.000000e+000 -2.868663e-001 9.579706e-001
      outer loop
         vertex 1.578860e+002 1.048128e+001 1.232410e+002
         vertex 1.478860e+002 1.048128e+001 1.232410e+002
         vertex 1.578860e+002 1.024556e+001 1.231779e+002
      endloop
   endfacet
   facet normal 0.000000e+000 -2.305519e-001 9.730600e-001
      outer loop
         vertex 1.578860e+002 1.024556e+001 1.231779e+002
         vertex 1.478860e+002 1.048128e+001 1.232410e+002
         vertex 1.478860e+002 1.024556e+001 1.231779e+002
      endloop
   endfacet
   facet normal 0.000000e+000 -1.161583e-001 9.932307e-001
      outer loop
         vertex 1.578860e+002 1.024556e+001 1.231779e+002
         vertex 1.478860e+002 1.024556e+001 1.231779e+002
         vertex 1.578860e+002 1.000245e+001 1.231566e+002
      endloop
   endfacet
   facet normal 0.000000e+000 -5.807914e-002 9.983120e-001
      outer loop
         vertex 1.578860e+002 1.000245e+001 1.231566e+002
         vertex 1.478860e+002 1.024556e+001 1.231779e+002
         vertex 1.478860e+002 1.000245e+001 1.231566e+002
      endloop
   endfacet
   facet normal 0.000000e+000 5.807914e-002 9.983120e-001
      outer loop
         vertex 1.578860e+002 1.000245e+001 1.231566e+002
         vertex 1.478860e+002 1.000245e+001 1.231566e+002
         vertex 1.578860e+002 9.759342e+000 1.231779e+002
      endloop
   endfacet
   facet normal 0.000000e+000 1.161583e-001 9.932307e-001
      outer loop
         vertex 1.578860e+002 9.759342e+000 1.231779e+002
         vertex 1.478860e+002 1.000245e+001 1.231566e+002
         vertex 1.478860e+002 9.759342e+000 1.231779e+002
      endloop
   endfacet
   facet normal 0.000000e+000 2.305519e-001 9.730600e-001
      outer loop
         vertex 1.578860e+002 9.759342e+000 1.231779e+002
         vertex 1.478860e+002 9.759342e+000 1.231779e+002
         vertex 1.578860e+002 9.523622e+000 1.232410e+002
      endloop
   endfacet
   facet normal 0.000000e+000 2.868663e-001 9.579706e-001
      outer loop
         vertex 1.578860e+002 9.523622e+000 1.232410e+002
         vertex 1.478860e+002 9.759342e+000 1.231779e+002
         vertex 1.478860e+002 9.523622e+000 1.232410e+002
      endloop
   endfacet
   facet normal 0.000000e+000 3.960194e-001 9.182422e-001
      outer loop
         vertex 1.578860e+002 9.523622e+000 1.232410e+002
         vertex 1.478860e+002 9.523622e+000 1.232410e+002
         vertex 1.578860e+002 9.302450e+000 1.233442e+002
      endloop
   endfacet
   facet normal 0.000000e+000 4.488580e-001 8.936031e-001
      outer loop
         vertex 1.578860e+002 9.302450e+000 1.233442e+002
         vertex 1.478860e+002 9.523622e+000 1.232410e+002
         vertex 1.478860e+002 9.302450e+000 1.233442e+002
      endloop
   endfacet
   facet normal 0.000000e+000 5.494540e-001 8.355240e-001
      outer loop
         vertex 1.578860e+002 9.302450e+000 1.233442e+002
         vertex 1.478860e+002 9.302450e+000 1.233442e+002
         vertex 1.578860e+002 9.102548e+000 1.234841e+002
      endloop
   endfacet
   facet normal 0.000000e+000 5.972114e-001 8.020839e-001
      outer loop
         vertex 1.578860e+002 9.102548e+000 1.234841e+002
         vertex 1.478860e+002 9.302450e+000 1.233442e+002
         vertex 1.478860e+002 9.102548e+000 1.234841e+002
      endloop
   endfacet
   facet normal 0.000000e+000 6.861938e-001 7.274188e-001
      outer loop
         vertex 1.578860e+002 9.102548e+000 1.234841e+002
         vertex 1.478860e+002 9.102548e+000 1.234841e+002
         vertex 1.578860e+002 8.929988e+000 1.236567e+002
      endloop
   endfacet
   facet normal 0.000000e+000 7.274188e-001 6.861938e-001
      outer loop
         vertex 1.578860e+002 8.929988e+000 1.236567e+002
         vertex 1.478860e+002 9.102548e+000 1.234841e+002
         vertex 1.478860e+002 8.929988e+000 1.236567e+002
      endloop
   endfacet
   facet normal 0.000000e+000 8.020839e-001 5.972114e-001
      outer loop
         vertex 1.578860e+002 8.929988e+000 1.236567e+002
         vertex 1.478860e+002 8.929988e+000 1.236567e+002
         vertex 1.578860e+002 8.790014e+000 1.238566e+002
      endloop
   endfacet
   facet normal 0.000000e+000 8.355240e-001 5.494540e-001
      outer loop
         vertex 1.578860e+002 8.790014e+000 1.238566e+002
         vertex 1.478860e+002 8.929988e+000 1.236567e+002
         vertex 1.478860e+002 8.790014e+000 1.238566e+002
      endloop
   endfacet
   facet normal 0.000000e+000 8.936031e-001 4.488580e-001
      outer loop
         vertex 1.578860e+002 8.790014e+000 1.238566e+002
         vertex 1.478860e+002 8.790014e+000 1.238566e+002
         vertex 1.578860e+002 8.686880e+000 1.240778e+002
      endloop
   endfacet
   facet normal 0.000000e+000 9.182422e-001 3.960194e-001
      outer loop
         vertex 1.578860e+002 8.686880e+000 1.240778e+002
         vertex 1.478860e+002 8.790014e+000 1.238566e+002
         vertex 1.478860e+002 8.686880e+000 1.240778e+002
      endloop
   endfacet
   facet normal 0.000000e+000 9.579706e-001 2.868663e-001
      outer loop
         vertex 1.578860e+002 8.686880e+000 1.240778e+002
         vertex 1.478860e+002 8.686880e+000 1.240778e+002
         vertex 1.578860e+002 8.623719e+000 1.243135e+002
      endloop
   endfacet
   facet normal 0.000000e+000 9.730600e-001 2.305519e-001
      outer loop
         vertex 1.578860e+002 8.623719e+000 1.243135e+002
         vertex 1.478860e+002 8.686880e+000 1.240778e+002
         vertex 1.478860e+002 8.623719e+000 1.243135e+002
      endloop
   endfacet
   facet normal 0.000000e+000 9.932307e-001 1.161583e-001
      outer loop
         vertex 1.578860e+002 8.623719e+000 1.243135e+002
         vertex 1.478860e+002 8.623719e+000 1.243135e+002
         vertex 1.578860e+002 8.602450e+000 1.245566e+002
      endloop
   endfacet
   facet normal 0.000000e+000 9.983120e-001 5.807914e-002
      outer loop
         vertex 1.578860e+002 8.602450e+000 1.245566e+002
         vertex 1.478860e+002 8.623719e+000 1.243135e+002
         vertex 1.478860e+002 8.602450e+000 1.245566e+002
      endloop
   endfacet
endsolid